<svg width="15" height="16" viewBox="0 0 15 16" xmlns="http://www.w3.org/2000/svg">
    <path d="M10.074 8.156a2.466 2.466 0 0 0-2.461-2.462A2.466 2.466 0 0 0 5.15 8.156a2.466 2.466 0 0 0 2.462 2.461 2.466 2.466 0 0 0 2.461-2.461zm1.327 0a3.783 3.783 0 0 1-3.788 3.788 3.783 3.783 0 0 1-3.788-3.788 3.783 3.783 0 0 1 3.788-3.788A3.783 3.783 0 0 1 11.4 8.156zm1.039-3.942c0 .49-.395.884-.884.884a.882.882 0 0 1-.885-.884c0-.49.395-.884.885-.884s.884.394.884.884zM7.613 2.098c-1.077 0-3.385-.087-4.356.298a2.362 2.362 0 0 0-.846.558c-.26.26-.423.51-.557.846-.385.97-.298 3.278-.298 4.355 0 1.077-.087 3.385.298 4.356.134.337.297.586.557.846.26.26.51.423.846.558.971.384 3.279.297 4.356.297s3.384.087 4.355-.297c.337-.135.587-.298.847-.558.26-.26.423-.51.557-.846.385-.971.298-3.279.298-4.356s.087-3.384-.298-4.355a2.362 2.362 0 0 0-.557-.846c-.26-.26-.51-.424-.847-.558-.97-.385-3.278-.298-4.355-.298zm7.384 6.058c0 1.019.01 2.029-.048 3.048-.058 1.183-.326 2.23-1.192 3.096-.865.865-1.913 1.135-3.096 1.192-1.019.058-2.028.048-3.048.048-1.019 0-2.028.01-3.047-.048-1.183-.058-2.231-.327-3.096-1.192-.866-.865-1.135-1.913-1.192-3.096C.22 10.184.23 9.175.23 8.156c0-1.02-.01-2.029.048-3.048.057-1.183.326-2.23 1.192-3.096C2.335 1.147 3.383.877 4.566.82 5.585.762 6.594.772 7.613.772c1.02 0 2.03-.01 3.048.048 1.183.058 2.231.327 3.096 1.192.866.865 1.135 1.913 1.192 3.096.058 1.02.048 2.029.048 3.048z" fill="#FFF" fill-rule="nonzero"/>
</svg>
